<?xml version="1.0" encoding="UTF-8"?>
<svg xmlns="http://www.w3.org/2000/svg" viewBox="0 0 940 540" font-family="Segoe UI, Helvetica, Arial, sans-serif" font-size="11">
  <defs>
    <marker id="arr" viewBox="0 0 10 6" refX="10" refY="3" markerWidth="7" markerHeight="5" orient="auto-start-reverse">
      <path d="M0,0 L10,3 L0,6 Z" fill="#555"/>
    </marker>
    <marker id="arr-r" viewBox="0 0 10 6" refX="10" refY="3" markerWidth="7" markerHeight="5" orient="auto-start-reverse">
      <path d="M0,0 L10,3 L0,6 Z" fill="#e74c3c"/>
    </marker>
    <marker id="arr-g" viewBox="0 0 10 6" refX="10" refY="3" markerWidth="7" markerHeight="5" orient="auto-start-reverse">
      <path d="M0,0 L10,3 L0,6 Z" fill="#1e8449"/>
    </marker>
    <marker id="arr-y" viewBox="0 0 10 6" refX="10" refY="3" markerWidth="7" markerHeight="5" orient="auto-start-reverse">
      <path d="M0,0 L10,3 L0,6 Z" fill="#b7950b"/>
    </marker>
    <marker id="arr-p" viewBox="0 0 10 6" refX="10" refY="3" markerWidth="7" markerHeight="5" orient="auto-start-reverse">
      <path d="M0,0 L10,3 L0,6 Z" fill="#6c3483"/>
    </marker>

    <!-- BJT NPN symbol (collector up, emitter down, base left) -->
    <g id="bjt">
      <line x1="0" y1="0" x2="0" y2="20" stroke="#2c3e50" stroke-width="2"/>
      <line x1="0" y1="6" x2="-10" y2="0" stroke="#2c3e50" stroke-width="1.5"/>
      <line x1="0" y1="14" x2="-10" y2="20" stroke="#2c3e50" stroke-width="1.5"/>
      <polygon points="-10,20 -6,15 -10,14" fill="#2c3e50"/>
      <line x1="0" y1="10" x2="8" y2="10" stroke="#2c3e50" stroke-width="1.5"/>
      <line x1="-10" y1="0" x2="-10" y2="-6" stroke="#2c3e50" stroke-width="1.2"/>
      <line x1="-10" y1="20" x2="-10" y2="26" stroke="#2c3e50" stroke-width="1.2"/>
    </g>
  </defs>

  <!-- =============== ESP32 MCU =============== -->
  <rect x="20" y="40" width="260" height="450" rx="10" fill="#1a3c5e" stroke="#0f2940" stroke-width="2"/>
  <text x="150" y="63" text-anchor="middle" fill="white" font-weight="bold" font-size="14">ESP32 / S3 / P4</text>

  <!-- Layer 1: Application -->
  <rect x="35" y="76" width="230" height="50" rx="5" fill="#2a6496" stroke="#1f4f78" stroke-width="1"/>
  <text x="150" y="98" text-anchor="middle" fill="white" font-weight="bold" font-size="10">Application</text>
  <text x="150" y="114" text-anchor="middle" fill="#aed6f1" font-size="9">regulation_callback</text>

  <!-- Bus down: App to FOC -->
  <line x1="150" y1="126" x2="150" y2="135" stroke="#7fb3d8" stroke-width="1.2" marker-end="url(#arr)"/>

  <!-- Layer 2: FOC Pipeline -->
  <rect x="35" y="138" width="230" height="56" rx="5" fill="#1e8449" stroke="#145a32" stroke-width="1"/>
  <text x="150" y="158" text-anchor="middle" fill="white" font-weight="bold" font-size="10">FOC Pipeline (Q16.16)</text>
  <text x="150" y="173" text-anchor="middle" fill="#a9dfbf" font-size="8">Clarke - Park - PID - Inv.Park - SVPWM</text>
  <text x="150" y="185" text-anchor="middle" fill="#a9dfbf" font-size="7">IQ31 sin/cos LUT</text>

  <!-- Bus down: FOC to Drivers -->
  <line x1="150" y1="194" x2="150" y2="203" stroke="#7fb3d8" stroke-width="1.2" marker-end="url(#arr)"/>

  <!-- Layer 3: HAL Drivers -->
  <rect x="35" y="206" width="230" height="56" rx="5" fill="#1c2833" stroke="#566573" stroke-width="1"/>
  <text x="150" y="222" text-anchor="middle" fill="#d5dbdb" font-weight="bold" font-size="10">HAL Drivers</text>
  <rect x="42" y="230" width="68" height="24" rx="3" fill="#1e8449" stroke="#145a32" stroke-width="1"/>
  <text x="76" y="246" text-anchor="middle" fill="white" font-size="7" font-weight="bold">inverter_drv</text>
  <rect x="116" y="230" width="68" height="24" rx="3" fill="#b7950b" stroke="#7d6608" stroke-width="1"/>
  <text x="150" y="246" text-anchor="middle" fill="white" font-size="7" font-weight="bold">isensor_drv</text>
  <rect x="190" y="230" width="68" height="24" rx="3" fill="#6c3483" stroke="#4a235a" stroke-width="1"/>
  <text x="224" y="246" text-anchor="middle" fill="white" font-size="7" font-weight="bold">rotor_drv</text>

  <!-- Internal vertical buses: HAL drivers to Peripherals -->
  <line x1="76" y1="254" x2="76" y2="277" stroke="#1e8449" stroke-width="1.2" marker-end="url(#arr-g)"/>
  <line x1="150" y1="254" x2="150" y2="277" stroke="#b7950b" stroke-width="1.2" marker-end="url(#arr-y)"/>
  <line x1="224" y1="254" x2="224" y2="277" stroke="#6c3483" stroke-width="1.2" marker-end="url(#arr-p)"/>

  <!-- Layer 4: Peripherals -->
  <rect x="35" y="280" width="230" height="56" rx="5" fill="#0e1a2b" stroke="#566573" stroke-width="1"/>
  <text x="150" y="296" text-anchor="middle" fill="#d5dbdb" font-weight="bold" font-size="10">Peripherals</text>
  <rect x="42" y="304" width="68" height="24" rx="3" fill="#1e8449" stroke="#145a32" stroke-width="1"/>
  <text x="76" y="320" text-anchor="middle" fill="white" font-size="7" font-weight="bold">MCPWM</text>
  <rect x="116" y="304" width="68" height="24" rx="3" fill="#b7950b" stroke="#7d6608" stroke-width="1"/>
  <text x="150" y="320" text-anchor="middle" fill="white" font-size="7" font-weight="bold">ADC</text>
  <rect x="190" y="304" width="68" height="24" rx="3" fill="#6c3483" stroke="#4a235a" stroke-width="1"/>
  <text x="224" y="320" text-anchor="middle" fill="white" font-size="7" font-weight="bold">I2C / SPI</text>

  <!-- Internal vertical buses: Peripherals to pin area -->
  <line x1="76" y1="328" x2="76" y2="352" stroke="#1e8449" stroke-width="1.2"/>
  <line x1="150" y1="328" x2="150" y2="400" stroke="#b7950b" stroke-width="1.2"/>
  <line x1="224" y1="328" x2="224" y2="442" stroke="#6c3483" stroke-width="1.2"/>

  <!-- PWM pin bus: vertical at x=76 turns horizontal right to edge -->
  <line x1="76" y1="352" x2="280" y2="352" stroke="#1e8449" stroke-width="1.2"/>
  <circle cx="280" cy="352" r="3" fill="#1e8449"/>
  <text x="138" y="348" fill="#a9dfbf" font-size="7">PWM_U / V / W + UL / VL / WL</text>

  <!-- ADC pin bus: vertical at x=150 turns horizontal right to edge -->
  <line x1="150" y1="400" x2="280" y2="400" stroke="#b7950b" stroke-width="1.2"/>
  <circle cx="280" cy="400" r="3" fill="#b7950b"/>
  <text x="172" y="396" fill="#f9e79f" font-size="7">ADC_CH0 / CH1 / CH2</text>

  <!-- I2C pin bus: vertical at x=224 turns horizontal right to edge -->
  <line x1="224" y1="442" x2="280" y2="442" stroke="#6c3483" stroke-width="1.2"/>
  <circle cx="280" cy="442" r="3" fill="#6c3483"/>
  <text x="236" y="438" fill="#d2b4de" font-size="7">SDA / SCL</text>

  <!-- =============== POWER SUPPLY =============== -->
  <rect x="440" y="8" width="130" height="32" rx="6" fill="#f9ebea" stroke="#c0392b" stroke-width="1.5"/>
  <text x="505" y="28" text-anchor="middle" fill="#c0392b" font-weight="bold" font-size="11">DC Supply 12-48V</text>
  <line x1="505" y1="40" x2="505" y2="58" stroke="#c0392b" stroke-width="2" marker-end="url(#arr-r)"/>
  <text x="518" y="53" fill="#c0392b" font-size="9" font-weight="bold">V_DC</text>

  <!-- =============== INVERTER BOARD =============== -->
  <rect x="360" y="60" width="250" height="290" rx="8" fill="#f0f3f4" stroke="#aab7b8" stroke-width="2"/>
  <text x="485" y="80" text-anchor="middle" fill="#2c3e50" font-weight="bold" font-size="13">Inverter Board</text>

  <!-- Sub-block: 3-Phase Inverter -->
  <rect x="375" y="90" width="220" height="110" rx="6" fill="#eaf2f8" stroke="#2980b9" stroke-width="1.5"/>
  <text x="485" y="108" text-anchor="middle" fill="#1a5276" font-weight="bold" font-size="10">3-Phase Inverter</text>
  <text x="485" y="122" text-anchor="middle" fill="#5499c7" font-size="9">L6230 / DRV83x1 / Discrete</text>

  <!-- V_DC rail -->
  <line x1="390" y1="134" x2="580" y2="134" stroke="#c0392b" stroke-width="1.2"/>
  <text x="585" y="137" fill="#c0392b" font-size="6">V+</text>
  <!-- GND rail -->
  <line x1="390" y1="186" x2="580" y2="186" stroke="#555" stroke-width="1.2"/>
  <text x="585" y="189" fill="#555" font-size="6">GND</text>

  <!-- Half-bridge U: NPN high-side, PNP low-side -->
  <g transform="translate(420, 140)">
    <!-- NPN high-side: collector to V+, emitter to output, arrow OUT (down) -->
    <line x1="0" y1="0" x2="0" y2="6" stroke="#2c3e50" stroke-width="1.2"/>
    <line x1="-6" y1="8" x2="6" y2="8" stroke="#2c3e50" stroke-width="2"/>
    <line x1="-6" y1="8" x2="-8" y2="14" stroke="#2c3e50" stroke-width="1.2"/>
    <line x1="6" y1="8" x2="8" y2="14" stroke="#2c3e50" stroke-width="1.2"/>
    <polygon points="8,14 5,10 8,8" fill="#2c3e50"/>
    <line x1="-10" y1="10" x2="-6" y2="8" stroke="#1e8449" stroke-width="0.8"/>
    <!-- Output tap -->
    <circle cx="0" cy="18" r="2.5" fill="#e74c3c"/>
    <!-- PNP low-side: emitter to output (arrow IN/up), collector to GND -->
    <line x1="0" y1="22" x2="0" y2="28" stroke="#2c3e50" stroke-width="1.2"/>
    <line x1="-6" y1="28" x2="6" y2="28" stroke="#2c3e50" stroke-width="2"/>
    <line x1="-6" y1="28" x2="-8" y2="34" stroke="#2c3e50" stroke-width="1.2"/>
    <polygon points="-8,28 -11,32 -5,32" fill="#2c3e50"/>
    <line x1="6" y1="28" x2="8" y2="34" stroke="#2c3e50" stroke-width="1.2"/>
    <line x1="-10" y1="30" x2="-6" y2="28" stroke="#1e8449" stroke-width="0.8"/>
    <line x1="0" y1="38" x2="0" y2="46" stroke="#2c3e50" stroke-width="1.2"/>
    <line x1="2" y1="18" x2="20" y2="18" stroke="#e74c3c" stroke-width="1.2"/>
    <text x="0" y="54" text-anchor="middle" fill="#555" font-size="8">U</text>
  </g>

  <!-- Half-bridge V: NPN high-side, PNP low-side -->
  <g transform="translate(480, 140)">
    <line x1="0" y1="0" x2="0" y2="6" stroke="#2c3e50" stroke-width="1.2"/>
    <line x1="-6" y1="8" x2="6" y2="8" stroke="#2c3e50" stroke-width="2"/>
    <line x1="-6" y1="8" x2="-8" y2="14" stroke="#2c3e50" stroke-width="1.2"/>
    <line x1="6" y1="8" x2="8" y2="14" stroke="#2c3e50" stroke-width="1.2"/>
    <polygon points="8,14 5,10 8,8" fill="#2c3e50"/>
    <line x1="-10" y1="10" x2="-6" y2="8" stroke="#1e8449" stroke-width="0.8"/>
    <circle cx="0" cy="18" r="2.5" fill="#e74c3c"/>
    <line x1="0" y1="22" x2="0" y2="28" stroke="#2c3e50" stroke-width="1.2"/>
    <line x1="-6" y1="28" x2="6" y2="28" stroke="#2c3e50" stroke-width="2"/>
    <line x1="-6" y1="28" x2="-8" y2="34" stroke="#2c3e50" stroke-width="1.2"/>
    <polygon points="-8,28 -11,32 -5,32" fill="#2c3e50"/>
    <line x1="6" y1="28" x2="8" y2="34" stroke="#2c3e50" stroke-width="1.2"/>
    <line x1="-10" y1="30" x2="-6" y2="28" stroke="#1e8449" stroke-width="0.8"/>
    <line x1="0" y1="38" x2="0" y2="46" stroke="#2c3e50" stroke-width="1.2"/>
    <line x1="2" y1="18" x2="20" y2="18" stroke="#e74c3c" stroke-width="1.2"/>
    <text x="0" y="54" text-anchor="middle" fill="#555" font-size="8">V</text>
  </g>

  <!-- Half-bridge W: NPN high-side, PNP low-side -->
  <g transform="translate(540, 140)">
    <line x1="0" y1="0" x2="0" y2="6" stroke="#2c3e50" stroke-width="1.2"/>
    <line x1="-6" y1="8" x2="6" y2="8" stroke="#2c3e50" stroke-width="2"/>
    <line x1="-6" y1="8" x2="-8" y2="14" stroke="#2c3e50" stroke-width="1.2"/>
    <line x1="6" y1="8" x2="8" y2="14" stroke="#2c3e50" stroke-width="1.2"/>
    <polygon points="8,14 5,10 8,8" fill="#2c3e50"/>
    <line x1="-10" y1="10" x2="-6" y2="8" stroke="#1e8449" stroke-width="0.8"/>
    <circle cx="0" cy="18" r="2.5" fill="#e74c3c"/>
    <line x1="0" y1="22" x2="0" y2="28" stroke="#2c3e50" stroke-width="1.2"/>
    <line x1="-6" y1="28" x2="6" y2="28" stroke="#2c3e50" stroke-width="2"/>
    <line x1="-6" y1="28" x2="-8" y2="34" stroke="#2c3e50" stroke-width="1.2"/>
    <polygon points="-8,28 -11,32 -5,32" fill="#2c3e50"/>
    <line x1="6" y1="28" x2="8" y2="34" stroke="#2c3e50" stroke-width="1.2"/>
    <line x1="-10" y1="30" x2="-6" y2="28" stroke="#1e8449" stroke-width="0.8"/>
    <line x1="0" y1="38" x2="0" y2="46" stroke="#2c3e50" stroke-width="1.2"/>
    <line x1="2" y1="18" x2="20" y2="18" stroke="#e74c3c" stroke-width="1.2"/>
    <text x="0" y="54" text-anchor="middle" fill="#555" font-size="8">W</text>
  </g>

  <!-- Sub-block: Current sense amplifiers -->
  <rect x="375" y="210" width="220" height="128" rx="6" fill="#fef9e7" stroke="#b7950b" stroke-width="1.5"/>
  <text x="485" y="228" text-anchor="middle" fill="#7d6608" font-weight="bold" font-size="10">Current Sense Amplifiers</text>

  <g transform="translate(400, 242)">
    <polygon points="0,0 0,24 28,12" fill="none" stroke="#b7950b" stroke-width="1.3"/>
    <text x="8" y="8" fill="#b7950b" font-size="6">+</text>
    <text x="8" y="22" fill="#b7950b" font-size="6">-</text>
    <line x1="28" y1="12" x2="38" y2="12" stroke="#b7950b" stroke-width="1"/>
    <line x1="-10" y1="12" x2="0" y2="12" stroke="#b7950b" stroke-width="1"/>
    <text x="14" y="34" text-anchor="middle" fill="#7d6608" font-size="7">Iu</text>
  </g>
  <g transform="translate(460, 242)">
    <polygon points="0,0 0,24 28,12" fill="none" stroke="#b7950b" stroke-width="1.3"/>
    <text x="8" y="8" fill="#b7950b" font-size="6">+</text>
    <text x="8" y="22" fill="#b7950b" font-size="6">-</text>
    <line x1="28" y1="12" x2="38" y2="12" stroke="#b7950b" stroke-width="1"/>
    <line x1="-10" y1="12" x2="0" y2="12" stroke="#b7950b" stroke-width="1"/>
    <text x="14" y="34" text-anchor="middle" fill="#7d6608" font-size="7">Iv</text>
  </g>
  <g transform="translate(520, 242)">
    <polygon points="0,0 0,24 28,12" fill="none" stroke="#b7950b" stroke-width="1.3"/>
    <text x="8" y="8" fill="#b7950b" font-size="6">+</text>
    <text x="8" y="22" fill="#b7950b" font-size="6">-</text>
    <line x1="28" y1="12" x2="38" y2="12" stroke="#b7950b" stroke-width="1"/>
    <line x1="-10" y1="12" x2="0" y2="12" stroke="#b7950b" stroke-width="1"/>
    <text x="14" y="34" text-anchor="middle" fill="#7d6608" font-size="7">Iw</text>
  </g>
  <text x="485" y="327" text-anchor="middle" fill="#7d6608" font-size="8">from phase shunts</text>

  <!-- =============== MOTOR =============== -->
  <g transform="translate(670, 80)">
    <rect x="15" y="10" width="80" height="55" rx="4" fill="#e8e8e8" stroke="#888" stroke-width="1.5"/>
    <rect x="0" y="6" width="18" height="63" rx="6" fill="#d0d0d0" stroke="#888" stroke-width="1.5"/>
    <rect x="92" y="6" width="18" height="63" rx="6" fill="#d0d0d0" stroke="#888" stroke-width="1.5"/>
    <line x1="25" y1="10" x2="25" y2="65" stroke="#bbb" stroke-width="0.7"/>
    <line x1="35" y1="10" x2="35" y2="65" stroke="#bbb" stroke-width="0.7"/>
    <line x1="45" y1="10" x2="45" y2="65" stroke="#bbb" stroke-width="0.7"/>
    <line x1="55" y1="10" x2="55" y2="65" stroke="#bbb" stroke-width="0.7"/>
    <line x1="65" y1="10" x2="65" y2="65" stroke="#bbb" stroke-width="0.7"/>
    <line x1="75" y1="10" x2="75" y2="65" stroke="#bbb" stroke-width="0.7"/>
    <line x1="85" y1="10" x2="85" y2="65" stroke="#bbb" stroke-width="0.7"/>
    <rect x="48" y="68" width="14" height="50" rx="3" fill="#999" stroke="#666" stroke-width="1"/>
    <rect x="10" y="68" width="90" height="6" rx="1" fill="#aaa" stroke="#888" stroke-width="1"/>
    <rect x="5" y="74" width="10" height="8" rx="1" fill="#999" stroke="#777" stroke-width="0.8"/>
    <rect x="95" y="74" width="10" height="8" rx="1" fill="#999" stroke="#777" stroke-width="0.8"/>
    <circle cx="9" cy="20" r="3" fill="#e74c3c" stroke="#c0392b" stroke-width="0.8"/>
    <circle cx="9" cy="37" r="3" fill="#e74c3c" stroke="#c0392b" stroke-width="0.8"/>
    <circle cx="9" cy="54" r="3" fill="#e74c3c" stroke="#c0392b" stroke-width="0.8"/>
  </g>
  <text x="725" y="210" text-anchor="middle" fill="#555" font-weight="bold" font-size="11">PMSM / BLDC Motor</text>

  <!-- =============== ENCODER =============== -->
  <rect x="690" y="370" width="120" height="80" rx="8" fill="#eaf2f8" stroke="#2e86c1" stroke-width="2"/>
  <text x="750" y="392" text-anchor="middle" fill="#1a5276" font-weight="bold" font-size="10">Rotor Encoder</text>
  <text x="750" y="406" text-anchor="middle" fill="#5499c7" font-size="9">AS5600 / AS5048</text>
  <circle cx="750" cy="432" r="12" fill="none" stroke="#2e86c1" stroke-width="1.5"/>
  <path d="M750,420 A12,12 0 1,1 738,432" fill="none" stroke="#2e86c1" stroke-width="1.5" marker-end="url(#arr)"/>
  <text x="743" y="436" fill="#2e86c1" font-size="7" font-weight="bold">N</text>
  <text x="755" y="436" fill="#c0392b" font-size="7" font-weight="bold">S</text>

  <!-- =============== CONNECTIONS (all orthogonal, bus style) =============== -->

  <!-- === PWM: ESP32 pin bus right, vertical up, horizontal into inverter === -->
  <line x1="283" y1="352" x2="310" y2="352" stroke="#1e8449" stroke-width="1.5" stroke-dasharray="6,3"/>
  <line x1="310" y1="352" x2="310" y2="155" stroke="#1e8449" stroke-width="1.5" stroke-dasharray="6,3"/>
  <line x1="310" y1="155" x2="375" y2="155" stroke="#1e8449" stroke-width="1.5" stroke-dasharray="6,3" marker-end="url(#arr-g)"/>
  <text x="314" y="150" fill="#1e8449" font-size="8" font-weight="bold">PWM U/V/W + UL/VL/WL (6ch)</text>

  <!-- === Phase power: inverter output right, vertical bus, horizontal into motor === -->
  <line x1="595" y1="158" x2="640" y2="158" stroke="#e74c3c" stroke-width="2"/>
  <line x1="640" y1="100" x2="640" y2="158" stroke="#e74c3c" stroke-width="2"/>
  <line x1="640" y1="100" x2="679" y2="100" stroke="#e74c3c" stroke-width="1.5" marker-end="url(#arr-r)"/>
  <line x1="640" y1="117" x2="679" y2="117" stroke="#e74c3c" stroke-width="1.5" marker-end="url(#arr-r)"/>
  <line x1="640" y1="134" x2="679" y2="134" stroke="#e74c3c" stroke-width="1.5" marker-end="url(#arr-r)"/>
  <text x="644" y="95" fill="#e74c3c" font-size="8" font-weight="bold">U</text>
  <text x="644" y="113" fill="#e74c3c" font-size="8" font-weight="bold">V</text>
  <text x="644" y="130" fill="#e74c3c" font-size="8" font-weight="bold">W</text>

  <!-- === Shunt taps: vertical down from phase bus into current amps === -->
  <circle cx="640" cy="100" r="2.5" fill="#b7950b"/>
  <circle cx="640" cy="117" r="2.5" fill="#b7950b"/>
  <circle cx="640" cy="134" r="2.5" fill="#b7950b"/>
  <line x1="640" y1="158" x2="640" y2="254" stroke="#b7950b" stroke-width="1" stroke-dasharray="4,2"/>
  <line x1="640" y1="254" x2="558" y2="254" stroke="#b7950b" stroke-width="1" stroke-dasharray="4,2" marker-end="url(#arr-y)"/>

  <!-- === ADC: amps left, horizontal to x=330, vertical down, horizontal into ESP32 === -->
  <line x1="375" y1="262" x2="330" y2="262" stroke="#b7950b" stroke-width="1.5" stroke-dasharray="4,2"/>
  <line x1="330" y1="262" x2="330" y2="400" stroke="#b7950b" stroke-width="1.5" stroke-dasharray="4,2"/>
  <line x1="330" y1="400" x2="283" y2="400" stroke="#b7950b" stroke-width="1.5" stroke-dasharray="4,2" marker-end="url(#arr-y)"/>
  <text x="334" y="340" fill="#b7950b" font-size="8" font-weight="bold">ADC CH0/CH1/CH2</text>

  <!-- === I2C: ESP32 pin bus right, horizontal to x=660, vertical up, horizontal into encoder === -->
  <line x1="283" y1="442" x2="660" y2="442" stroke="#6c3483" stroke-width="1.5"/>
  <line x1="660" y1="410" x2="660" y2="442" stroke="#6c3483" stroke-width="1.5"/>
  <line x1="660" y1="410" x2="690" y2="410" stroke="#6c3483" stroke-width="1.5" marker-end="url(#arr-p)"/>
  <text x="400" y="438" fill="#6c3483" font-size="8" font-weight="bold">SDA + SCL (or MOSI/MISO/SCK/CS)</text>

  <!-- === Shaft: motor bottom, vertical down to encoder top === -->
  <line x1="725" y1="198" x2="725" y2="370" stroke="#7f8c8d" stroke-width="2.5" stroke-dasharray="8,4"/>
  <text x="738" y="300" fill="#7f8c8d" font-size="9" font-style="italic">shaft</text>

  <!-- =============== LEGEND =============== -->
  <rect x="20" y="500" width="720" height="30" rx="5" fill="#f8f9f9" stroke="#d5d8dc" stroke-width="1"/>
  <line x1="35" y1="515" x2="60" y2="515" stroke="#1e8449" stroke-width="2" stroke-dasharray="6,3"/>
  <text x="65" y="519" fill="#555" font-size="9">PWM (6ch)</text>
  <line x1="140" y1="515" x2="165" y2="515" stroke="#b7950b" stroke-width="2" stroke-dasharray="4,2"/>
  <text x="170" y="519" fill="#555" font-size="9">ADC sense</text>
  <line x1="250" y1="515" x2="275" y2="515" stroke="#6c3483" stroke-width="2"/>
  <text x="280" y="519" fill="#555" font-size="9">I2C / SPI</text>
  <line x1="350" y1="515" x2="375" y2="515" stroke="#e74c3c" stroke-width="2.5"/>
  <text x="380" y="519" fill="#555" font-size="9">Phase power</text>
  <line x1="460" y1="515" x2="485" y2="515" stroke="#7f8c8d" stroke-width="2" stroke-dasharray="8,4"/>
  <text x="490" y="519" fill="#555" font-size="9">Mechanical</text>
  <line x1="570" y1="515" x2="595" y2="515" stroke="#c0392b" stroke-width="2"/>
  <text x="600" y="519" fill="#555" font-size="9">V_DC</text>
</svg>
